<svg width="9" height="17" viewBox="0 0 9 17" fill="none" xmlns="http://www.w3.org/2000/svg">
<path d="M5.65597 8.74548H5.15597V9.24548V16.5H3.07564V9.24548V8.74548H2.57564H0.5V6.7234H2.57564H3.07564V6.2234V3.9947C3.07564 2.80303 3.43267 1.94255 3.99365 1.38078C4.5554 0.818248 5.37674 0.5 6.41206 0.5C7.13695 0.5 7.79009 0.537139 8.21368 0.571522V2.3223L7.13417 2.32278C7.1341 2.32278 7.13402 2.32278 7.13395 2.32278C6.44639 2.32281 5.89731 2.4881 5.54612 2.91072C5.21245 3.31226 5.15597 3.83597 5.15597 4.294V6.2234V6.7234H5.65597H8.04201L7.78462 8.74548H5.65597Z" fill="#B6BAC7" stroke="black"/>
</svg>
